# xmcd
#
# Track frame offsets:
# 150
# 51487
# 125797
# 213120
# 279225
# 311656
#
# Disc length: 4689 seconds
#
# Revision: 0
# Processed by: cddbd v1.5.2PL0 Copyright (c) Steve Scherf et al.
# Submitted via: CoinsHifi v1.9h contact@coinshifi.com
#
DISCID=58124f06
DTITLE=COMPAS - COMPAS DU SUD
DYEAR=2010
DGENRE=Treble +
TTITLE0=COMPAS DU SUD
TTITLE1=COMPAS DU SUD
TTITLE2=D ZINE
TTITLE3=FEELING STAR
TTITLE4=FEELING STAR
TTITLE5=INCONNU
EXTD=
EXTT0=Medley
EXTT1=Medley
EXTT2=Medley
EXTT3=Medley
EXTT4=Medley
EXTT5=Medley
PLAYORDER=
